:SAMPLES-PER-SECOND 30
:FULLY-SPECIFIED
:DEGREES
229
root  6.77138 31.1787 -6.15746 -0.27536 -40.6307 5.71292
RightUpLeg  -50.0765 -7.589 5.65644
RightLeg  78.1947 -7.23011 -36.9555
RightFoot  -25.2192 1.00775 9.67796
RightToes  5.82063e-011 0 -3.6325e-017
Spine  51.8347 -0.0153577 7.27684
Spine1  -13.0392 5.64163 -21.6481
HEad  -48.6339 -17.4663 5.97388
LeftShoulder1  -0.225274 -2.42262 14.0082
LeftArm  48.5667 -79.5966 -127.495
LeftForeArm  148.525 -76.1043 -137.194
LeftHand  -0.983875 1.3001 27.6572
RightShoulder  -0.706883 1.36805 -26.3314
RightArm  -168.145 80.361 -96.4791
RightForeArm  13.2773 -6.28219 2.34997
RightHand  0.0472048 -5.79924 -17.336
LeftUpLeg  -53.9365 -15.5108 -0.664441
LeftLeg  71.7538 -3.98835 -12.483
LeftFoot  -20.0839 -0.0897109 -2.7343
LeftToes  -1.1369e-010 2.7689e-011 -1.90827e-011
230
root  7.0166 31.3133 -6.01426 -1.10544 -42.1631 6.37405
RightUpLeg  -49.5935 -6.54868 4.57943
RightLeg  77.7315 -7.37955 -36.2052
RightFoot  -24.6524 0.961787 9.65811
RightToes  5.82063e-011 0 -3.6325e-017
Spine  50.7331 -0.19115 7.46135
Spine1  -9.91009 6.12949 -22.0157
HEad  -51.7489 -19.6681 7.92437
LeftShoulder1  -0.170775 -0.744789 14.2767
LeftArm  60.0584 -78.1844 -137.897
LeftForeArm  148.703 -76.1234 -137.17
LeftHand  -1.00569 1.22326 27.7491
RightShoulder  -0.793955 3.20629 -23.2743
RightArm  175.019 86.9909 -109.645
RightForeArm  17.7945 -6.45951 3.4207
RightHand  0.169354 -6.65025 -16.9904
LeftUpLeg  -53.0508 -14.5919 -1.71345
LeftLeg  71.0268 -3.91517 -11.6989
LeftFoot  -19.6589 -0.0647228 -2.51255
LeftToes  -1.1369e-010 2.7689e-011 -1.90827e-011
231
root  7.28554 32.058 -5.97018 -0.740845 -43.0496 6.65506
RightUpLeg  -48.5587 -5.70625 3.72109
RightLeg  74.6454 -9.36203 -35.0742
RightFoot  -22.6827 0.739562 8.9721
RightToes  5.82063e-011 0 -3.6325e-017
Spine  49.7617 -0.286108 7.31609
Spine1  -7.49234 6.2888 -21.1776
HEad  -54.3193 -20.8539 9.41875
LeftShoulder1  -0.0848535 1.66852 15.0463
LeftArm  75.5304 -76.8912 -153.239
LeftForeArm  147.694 -76.3527 -136.214
LeftHand  -0.970024 1.29881 27.27
RightShoulder  -0.703269 4.15371 -20.2246
RightArm  10.457 88.1474 87.238
RightForeArm  21.3891 -6.56928 4.16313
RightHand  0.290861 -7.4777 -17.0852
LeftUpLeg  -51.5757 -14.4618 -2.05217
LeftLeg  67.0062 -4.41024 -10.5855
LeftFoot  -17.8313 -0.050091 -2.77837
LeftToes  -1.1369e-010 2.7689e-011 -1.90827e-011
232
root  7.56679 33.1515 -5.93482 0.972168 -43.5656 6.15848
RightUpLeg  -47.2018 -5.22049 3.48165
RightLeg  69.6036 -12.51 -33.5384
RightFoot  -19.989 0.455997 7.80157
RightToes  5.82063e-011 0 -3.6325e-017
Spine  49.019 -0.576528 7.4092
Spine1  -7.10814 5.8478 -19.8917
HEad  -54.2141 -21.2246 10.2324
LeftShoulder1  -0.00586384 3.42646 16.2442
LeftArm  85.2976 -75.416 -163.535
LeftForeArm  146.836 -76.5729 -135.288
LeftHand  -0.945833 1.25041 26.311
RightShoulder  -0.543021 4.19445 -17.8064
RightArm  -7.22047 85.3454 69.0884
RightForeArm  23.042 -6.66385 4.79263
RightHand  0.367918 -8.02649 -16.9841
LeftUpLeg  -49.9329 -15.0015 -1.48444
LeftLeg  60.8896 -4.9743 -9.01955
LeftFoot  -15.141 -0.0130322 -3.11936
LeftToes  -1.1369e-010 2.7689e-011 -1.90827e-011
233
root  7.86412 34.32 -5.83442 3.59595 -44.3815 5.15918
RightUpLeg  -45.918 -4.64333 3.64892
RightLeg  63.5039 -15.9111 -31.3829
RightFoot  -16.985 0.21187 6.63464
RightToes  5.82063e-011 0 -3.6325e-017
Spine  48.2222 -0.822396 7.6081
Spine1  -8.84907 4.98637 -18.2595
HEad  -51.0799 -21.1343 10.2388
LeftShoulder1  0.0058359 3.59914 16.9878
LeftArm  86.942 -74.9603 -165.39
LeftForeArm  146.898 -76.4886 -135.587
LeftHand  -0.940883 1.16587 25.6676
RightShoulder  -0.484363 3.8522 -17.2837
RightArm  -20.984 84.3536 53.4337
RightForeArm  22.302 -6.73885 5.21424
RightHand  0.390341 -8.35393 -16.0608
LeftUpLeg  -48.5552 -15.6497 -0.26703
LeftLeg  54.0482 -5.25793 -7.2533
LeftFoot  -11.967 0.0534598 -3.32955
LeftToes  -1.1369e-010 2.7689e-011 -1.90827e-011
234
root  8.17764 35.2961 -5.66676 6.07834 -45.9701 4.48737
RightUpLeg  -45.1527 -3.49976 3.49361
RightLeg  57.725 -18.5265 -28.8341
RightFoot  -14.0325 0.0437053 5.95871
RightToes  5.82063e-011 0 -3.6325e-017
Spine  47.3447 -0.740181 7.21162
Spine1  -11.1915 4.13116 -16.1781
HEad  -46.7098 -20.4953 9.81521
LeftShoulder1  -0.00258723 3.46608 16.8955
LeftArm  86.9919 -75.5148 -165.198
LeftForeArm  147.359 -76.247 -136.49
LeftHand  -0.941995 1.20862 25.9505
RightShoulder  -0.529642 2.86521 -19.3301
RightArm  -52.6205 85.204 18.8965
RightForeArm  20.1496 -6.73098 5.09287
RightHand  0.346531 -8.20414 -15.1452
LeftUpLeg  -47.6942 -15.8798 0.839904
LeftLeg  47.9328 -5.16405 -5.66617
LeftFoot  -8.81283 0.134878 -3.68458
LeftToes  -1.1369e-010 2.7689e-011 -1.90827e-011
235
root  8.49998 35.913 -5.47027 7.7135 -48.1547 4.60095
RightUpLeg  -45.2703 -2.17339 2.8107
RightLeg  53.7214 -20.0534 -26.9415
RightFoot  -11.673 -0.0629144 5.81559
RightToes  5.82063e-011 0 -3.6325e-017
Spine  46.6908 -0.461251 6.33434
Spine1  -13.1043 3.56806 -14.335
HEad  -43.1079 -19.6195 9.58389
LeftShoulder1  0.0224045 3.85838 16.7932
LeftArm  90.8843 -76.4355 -169.042
LeftForeArm  147.524 -76.2561 -136.494
LeftHand  -0.94682 1.3366 26.8792
RightShoulder  -0.518614 1.12782 -22.6324
RightArm  -107.861 82.9594 -40.6388
RightForeArm  17.3264 -6.62425 4.39292
RightHand  0.251255 -7.4278 -15.4716
LeftUpLeg  -47.6151 -15.7499 1.37787
LeftLeg  43.7663 -4.73641 -4.43182
LeftFoot  -6.15297 0.233197 -4.32691
LeftToes  -1.1369e-010 2.7689e-011 -1.90827e-011
236
root  8.83123 36.1395 -5.26468 8.49289 -50.4404 5.21988
RightUpLeg  -46.2613 -1.51766 2.17394
RightLeg  52.1762 -20.8972 -26.5268
RightFoot  -10.4542 -0.117065 5.91509
RightToes  5.82063e-011 0 -3.6325e-017
Spine  46.3245 -0.393455 5.9667
Spine1  -14.4315 3.27507 -13.8223
HEad  -41.4794 -19.1187 9.88768
LeftShoulder1  0.0580584 4.35542 17.4323
LeftArm  98.8078 -76.9568 -177.623
LeftForeArm  147.187 -76.5337 -135.498
LeftHand  -0.943908 1.45792 27.6012
RightShoulder  -0.326754 -1.08742 -25.4062
RightArm  -124.156 75.891 -62.6148
RightForeArm  12.6445 -6.42723 3.21717
RightHand  0.153387 -6.55894 -16.7735
LeftUpLeg  -48.4931 -15.6334 1.52996
LeftLeg  42.2523 -4.1742 -3.64795
LeftFoot  -4.42141 0.324815 -4.94251
LeftToes  -1.1369e-010 2.7689e-011 -1.90827e-011
237
root  9.15996 35.9537 -5.03351 8.45663 -52.6544 5.83057
RightUpLeg  -47.7735 -1.65104 1.9892
RightLeg  53.1997 -20.7736 -27.2779
RightFoot  -10.7224 -0.106276 6.26008
RightToes  5.82063e-011 0 -3.6325e-017
Spine  46.4359 -0.534203 6.47962
Spine1  -14.9955 3.27692 -14.2104
HEad  -41.7544 -19.1585 10.244
LeftShoulder1  0.0683428 4.4306 18.1115
LeftArm  106.678 -76.8558 173.391
LeftForeArm  146.552 -76.6863 -134.831
LeftHand  -0.928722 1.53854 27.7198
RightShoulder  0.0561016 -3.78649 -27.7063
RightArm  -125.907 68.3875 -69.2281
RightForeArm  5.65432 -6.07965 1.35939
RightHand  0.101279 -6.14578 -17.6074
LeftUpLeg  -50.033 -15.4877 1.44023
LeftLeg  43.7705 -3.69933 -3.38114
LeftFoot  -4.48454 0.342051 -5.26906
LeftToes  -1.1369e-010 2.7689e-011 -1.90827e-011
238
root  9.46525 35.3088 -4.75672 6.86023 -54.8832 6.36069
RightUpLeg  -49.0774 -1.92503 1.84619
RightLeg  56.7695 -18.6695 -28.0875
RightFoot  -12.3797 -0.0196722 6.97676
RightToes  5.82063e-011 0 -3.6325e-017
Spine  47.3484 -0.544416 7.01844
Spine1  -14.9518 3.56655 -13.9182
HEad  -42.3153 -19.3616 9.83191
LeftShoulder1  0.0160937 3.72001 17.8696
LeftArm  110.138 -77.2297 169.068
LeftForeArm  145.858 -76.6137 -134.929
LeftHand  -0.910572 1.60391 27.65
RightShoulder  0.545952 -6.44985 -30.2233
RightArm  -127.537 63.1935 -72.7318
RightForeArm  -0.684854 -5.64462 -0.802038
RightHand  0.102589 -6.16738 -17.4394
LeftUpLeg  -51.1316 -14.9356 0.63876
LeftLeg  48.2095 -3.1358 -3.31097
LeftFoot  -7.04996 0.240766 -5.28919
LeftToes  -1.1369e-010 2.7689e-011 -1.90827e-011
239
root  9.71391 34.2118 -4.4121 3.10114 -57.187 7.04449
RightUpLeg  -49.5874 -1.93257 1.29725
RightLeg  62.5034 -14.4871 -28.0018
RightFoot  -14.9621 0.139372 7.62749
RightToes  5.82063e-011 0 -3.6325e-017
Spine  48.7361 -0.578453 6.98743
Spine1  -13.9679 3.85036 -12.7182
HEad  -41.8089 -19.1349 8.82695
LeftShoulder1  -0.0702611 2.42929 17.1602
LeftArm  107.444 -78.9496 171.496
LeftForeArm  144.808 -76.7146 -134.334
LeftHand  -0.899674 1.68257 27.8898
RightShoulder  0.840446 -7.67838 -32.1575
RightArm  -132.043 61.4559 -76.4968
RightForeArm  -2.96377 -5.41292 -1.94912
RightHand  0.106617 -6.21964 -16.9668
LeftUpLeg  -51.0119 -13.8433 -1.18292
LeftLeg  54.9623 -2.10944 -2.69699
LeftFoot  -11.6006 0.0606336 -4.89946
LeftToes  -1.1369e-010 2.7689e-011 -1.90827e-011
240
root  9.87615 32.8423 -3.96603 -1.93158 -59.8458 7.92548
RightUpLeg  -49.4729 -1.71685 0.574777
RightLeg  69.1888 -9.67441 -26.7868
RightFoot  -17.9177 0.315474 7.62262
RightToes  5.82063e-011 0 -3.6325e-017
Spine  50.0204 -0.944055 6.86165
Spine1  -12.2071 3.87093 -11.9262
HEad  -40.199 -18.4803 8.15743
LeftShoulder1  -0.143171 1.12309 16.522
LeftArm  93.9317 -80.7397 -174.632
LeftForeArm  143.159 -77.1597 -132.297
LeftHand  -0.912127 1.67426 28.2037
RightShoulder  0.618488 -6.53757 -32.1477
RightArm  -139.371 63.4512 -81.3026
RightForeArm  -0.543411 -5.5545 -1.31851
RightHand  0.0707253 -5.97603 -16.8822
LeftUpLeg  -50.1925 -12.3031 -3.43155
LeftLeg  62.8489 -0.83349 -1.08208
LeftFoot  -16.5444 -0.0872898 -4.11974
LeftToes  -1.1369e-010 2.7689e-011 -1.90827e-011
